<svg width="67" height="17" viewBox="0 0 67 17" fill="none" xmlns="http://www.w3.org/2000/svg">
<g filter="url(#filter0_d_1_198)">
<path d="M8.22088 0.91722C8.28252 0.727495 8.55093 0.727495 8.61258 0.91722L9.48011 3.58722C9.50768 3.67206 9.58675 3.72951 9.67596 3.72951H12.4834C12.6829 3.72951 12.7658 3.98478 12.6044 4.10204L10.3332 5.75219C10.261 5.80463 10.2308 5.89758 10.2584 5.98242L11.1259 8.65242C11.1875 8.84215 10.9704 8.99991 10.809 8.88266L8.53777 7.23251C8.46559 7.18007 8.36786 7.18007 8.29568 7.23251L6.02445 8.88266C5.86306 8.99991 5.64591 8.84214 5.70756 8.65242L6.57509 5.98242C6.60266 5.89758 6.57246 5.80463 6.50028 5.75219L4.22905 4.10204C4.06766 3.98478 4.1506 3.72951 4.35009 3.72951H7.15749C7.24671 3.72951 7.32577 3.67206 7.35334 3.58722L8.22088 0.91722Z" fill="#F1CC4A"/>
</g>
<path d="M34.5799 0.917312C34.6415 0.727586 34.9099 0.727587 34.9716 0.917312L35.8391 3.58731C35.8667 3.67215 35.9458 3.7296 36.035 3.7296H38.8424C39.0419 3.7296 39.1248 3.98487 38.9634 4.10213L36.6922 5.75228C36.62 5.80472 36.5898 5.89767 36.6174 5.98252L37.4849 8.65251C37.5466 8.84224 37.3294 9 37.168 8.88275L34.8968 7.2326C34.8246 7.18016 34.7269 7.18016 34.6547 7.2326L32.3835 8.88275C32.2221 9 32.0049 8.84224 32.0666 8.65251L32.9341 5.98252C32.9617 5.89767 32.9315 5.80472 32.8593 5.75228L30.5881 4.10213C30.4267 3.98487 30.5096 3.7296 30.7091 3.7296H33.5165C33.6057 3.7296 33.6848 3.67215 33.7124 3.58731L34.5799 0.917312Z" fill="#F1CC4A"/>
<path d="M21.4004 0.917312C21.462 0.727586 21.7305 0.727587 21.7921 0.917312L22.6596 3.58731C22.6872 3.67215 22.7663 3.7296 22.8555 3.7296H25.6629C25.8624 3.7296 25.9453 3.98487 25.7839 4.10213L23.5127 5.75228C23.4405 5.80472 23.4103 5.89767 23.4379 5.98252L24.3054 8.65251C24.3671 8.84224 24.1499 9 23.9885 8.88275L21.7173 7.2326C21.6451 7.18016 21.5474 7.18016 21.4752 7.2326L19.204 8.88275C19.0426 9 18.8254 8.84224 18.8871 8.65251L19.7546 5.98252C19.7822 5.89767 19.752 5.80472 19.6798 5.75228L17.4086 4.10213C17.2472 3.98487 17.3301 3.7296 17.5296 3.7296H20.337C20.4262 3.7296 20.5053 3.67215 20.5329 3.58731L21.4004 0.917312Z" fill="#F1CC4A"/>
<path d="M47.7594 0.917312C47.821 0.727586 48.0894 0.727587 48.1511 0.917312L49.0186 3.58731C49.0462 3.67215 49.1252 3.7296 49.2145 3.7296H52.0219C52.2213 3.7296 52.3043 3.98487 52.1429 4.10213L49.8717 5.75228C49.7995 5.80472 49.7693 5.89767 49.7969 5.98252L50.6644 8.65251C50.726 8.84224 50.5089 9 50.3475 8.88275L48.0763 7.2326C48.0041 7.18016 47.9064 7.18016 47.8342 7.2326L45.5629 8.88275C45.4016 9 45.1844 8.84224 45.2461 8.65251L46.1136 5.98252C46.1412 5.89767 46.111 5.80472 46.0388 5.75228L43.7675 4.10213C43.6062 3.98487 43.6891 3.7296 43.8886 3.7296H46.696C46.7852 3.7296 46.8643 3.67215 46.8918 3.58731L47.7594 0.917312Z" fill="#F1CC4A"/>
<path d="M60.9389 0.917312C61.0005 0.727586 61.2689 0.727587 61.3306 0.917312L62.1981 3.58731C62.2257 3.67215 62.3048 3.7296 62.394 3.7296H65.2014C65.4009 3.7296 65.4838 3.98487 65.3224 4.10213L63.0512 5.75228C62.979 5.80472 62.9488 5.89767 62.9764 5.98252L63.8439 8.65251C63.9056 8.84224 63.6884 9 63.527 8.88275L61.2558 7.2326C61.1836 7.18016 61.0859 7.18016 61.0137 7.2326L58.7425 8.88275C58.5811 9 58.3639 8.84224 58.4256 8.65251L59.2931 5.98252C59.3207 5.89767 59.2905 5.80472 59.2183 5.75228L56.9471 4.10213C56.7857 3.98487 56.8686 3.7296 57.0681 3.7296H59.8755C59.9647 3.7296 60.0438 3.67215 60.0714 3.58731L60.9389 0.917312Z" fill="#F1CC4A"/>
<defs>
<filter id="filter0_d_1_198" x="0.143768" y="0.774933" width="16.5459" height="16.148" filterUnits="userSpaceOnUse" color-interpolation-filters="sRGB">
<feFlood flood-opacity="0" result="BackgroundImageFix"/>
<feColorMatrix in="SourceAlpha" type="matrix" values="0 0 0 0 0 0 0 0 0 0 0 0 0 0 0 0 0 0 127 0" result="hardAlpha"/>
<feOffset dy="4"/>
<feGaussianBlur stdDeviation="2"/>
<feComposite in2="hardAlpha" operator="out"/>
<feColorMatrix type="matrix" values="0 0 0 0 0 0 0 0 0 0 0 0 0 0 0 0 0 0 0.25 0"/>
<feBlend mode="normal" in2="BackgroundImageFix" result="effect1_dropShadow_1_198"/>
<feBlend mode="normal" in="SourceGraphic" in2="effect1_dropShadow_1_198" result="shape"/>
</filter>
</defs>
</svg>
